<svg aria-hidden="true" style="position: absolute; width: 0; height: 0; overflow: hidden;" version="1.1" xmlns="http://www.w3.org/2000/svg" xmlns:xlink="http://www.w3.org/1999/xlink">
    <defs>
        <symbol id="icon-burger" viewBox="0 0 32 32">
            <path d="M4.799 8.001c0-0.424 0.169-0.831 0.469-1.131s0.707-0.469 1.131-0.469h19.2c0.424 0 0.831 0.169 1.131 0.469s0.469 0.707 0.469 1.131-0.169 0.831-0.469 1.131c-0.3 0.3-0.707 0.469-1.131 0.469h-19.2c-0.424 0-0.831-0.169-1.131-0.469s-0.469-0.707-0.469-1.131z"></path>
            <path d="M4.799 16.001c0-0.424 0.169-0.831 0.469-1.131s0.707-0.469 1.131-0.469h19.2c0.424 0 0.831 0.169 1.131 0.469s0.469 0.707 0.469 1.131c0 0.424-0.169 0.831-0.469 1.131s-0.707 0.469-1.131 0.469h-19.2c-0.424 0-0.831-0.169-1.131-0.469s-0.469-0.707-0.469-1.131z"></path>
            <path d="M4.799 24.001c0-0.424 0.169-0.831 0.469-1.131s0.707-0.469 1.131-0.469h19.2c0.424 0 0.831 0.169 1.131 0.469s0.469 0.707 0.469 1.131c0 0.424-0.169 0.831-0.469 1.131s-0.707 0.469-1.131 0.469h-19.2c-0.424 0-0.831-0.169-1.131-0.469s-0.469-0.707-0.469-1.131z"></path>
        </symbol>
        <symbol id="icon-logo" viewBox="0 0 32 32">
            <path fill="#02bc6b" style="fill: var(--color8, #02bc6b)" d="M2.506 28.891c-1.379 0-2.506-1.117-2.506-2.481v-8.675h6.309v-0.010h3.792c0.978-0.025 1.805-0.868 1.805-1.861 0-1.017-0.852-1.861-1.88-1.861l-10.026 0.002v-2.483c0-1.365 1.128-2.481 2.506-2.481h7.519c1.905 0 3.534 0.67 4.862 2.010 1.354 1.315 2.030 2.928 2.030 4.814 0 1.861-0.652 3.474-1.98 4.789s-2.933 2.010-4.812 2.035h-5.113v3.722c0 1.365-1.128 2.481-2.506 2.481z"></path>
            <path fill="#02897a" style="fill: var(--color3, #02897a)" d="M20.078 6.16c2.769 2.663 4.164 5.979 4.164 9.749 0 3.707-1.337 7.020-4.063 9.691l-3.871-3.606c1.696-1.661 2.528-3.661 2.528-6.085 0-2.443-0.857-4.439-2.594-6.109l3.836-3.64z"></path>
            <path fill="#035b81" style="fill: var(--color9, #035b81)" d="M26.004 1.6c3.988 3.942 5.996 8.831 5.996 14.441 0 5.523-1.926 10.408-5.849 14.359l-3.736-3.614c2.922-2.943 4.354-6.512 4.354-10.745 0-4.275-1.48-7.842-4.466-10.793l3.701-3.648z"></path>
            <path fill="#028e37" style="fill: var(--color10, #028e37)" d="M0 22.709h5.013v3.702c0 1.365-1.128 2.481-2.506 2.481s-2.506-1.117-2.506-2.481v-3.702z"></path>
        </symbol>
        <symbol id="icon-theme" viewBox="0 0 32 32">
            <path d="M16 29.333c7.352 0 13.333-5.981 13.333-13.333s-5.981-13.333-13.333-13.333c-7.352 0-13.333 5.981-13.333 13.333s5.981 13.333 13.333 13.333zM16 5.333c5.881 0 10.667 4.785 10.667 10.667s-4.785 10.667-10.667 10.667c-5.881 0-10.667-4.785-10.667-10.667s4.785-10.667 10.667-10.667z"></path>
            <path d="M25.333 16c0-5.155-4.18-9.333-9.333-9.333v18.667c5.153 0 9.333-4.179 9.333-9.333z"></path>
        </symbol>
        <symbol id="icon-instagram" viewBox="0 0 24 24F">
            <path d="M7 1c-1.657 0-3.158 0.673-4.243 1.757s-1.757 2.586-1.757 4.243v10c0 1.657 0.673 3.158 1.757 4.243s2.586 1.757 4.243 1.757h10c1.657 0 3.158-0.673 4.243-1.757s1.757-2.586 1.757-4.243v-10c0-1.657-0.673-3.158-1.757-4.243s-2.586-1.757-4.243-1.757zM7 3h10c1.105 0 2.103 0.447 2.828 1.172s1.172 1.723 1.172 2.828v10c0 1.105-0.447 2.103-1.172 2.828s-1.723 1.172-2.828 1.172h-10c-1.105 0-2.103-0.447-2.828-1.172s-1.172-1.723-1.172-2.828v-10c0-1.105 0.447-2.103 1.172-2.828s1.723-1.172 2.828-1.172zM16.989 11.223c-0.15-0.972-0.571-1.857-1.194-2.567-0.754-0.861-1.804-1.465-3.009-1.644-0.464-0.074-0.97-0.077-1.477-0.002-1.366 0.202-2.521 0.941-3.282 1.967s-1.133 2.347-0.93 3.712 0.941 2.521 1.967 3.282 2.347 1.133 3.712 0.93 2.521-0.941 3.282-1.967 1.133-2.347 0.93-3.712zM15.011 11.517c0.122 0.82-0.1 1.609-0.558 2.227s-1.15 1.059-1.969 1.18-1.609-0.1-2.227-0.558-1.059-1.15-1.18-1.969 0.1-1.609 0.558-2.227 1.15-1.059 1.969-1.18c0.313-0.046 0.615-0.042 0.87-0.002 0.74 0.11 1.366 0.47 1.818 0.986 0.375 0.428 0.63 0.963 0.72 1.543zM17.5 7.5c0.552 0 1-0.448 1-1s-0.448-1-1-1-1 0.448-1 1 0.448 1 1 1z"></path>
        </symbol>
        <symbol id="icon-facebook" viewBox="0 0 24 24">
            <path d="M17 3v2h-2c-0.552 0-1.053 0.225-1.414 0.586s-0.586 0.862-0.586 1.414v3c0 0.552 0.448 1 1 1h2.719l-0.5 2h-2.219c-0.552 0-1 0.448-1 1v7h-2v-7c0-0.552-0.448-1-1-1h-2v-2h2c0.552 0 1-0.448 1-1v-3c0-1.105 0.447-2.103 1.172-2.828s1.723-1.172 2.828-1.172zM18 1h-3c-1.657 0-3.158 0.673-4.243 1.757s-1.757 2.586-1.757 4.243v2h-2c-0.552 0-1 0.448-1 1v4c0 0.552 0.448 1 1 1h2v7c0 0.552 0.448 1 1 1h4c0.552 0 1-0.448 1-1v-7h2c0.466 0 0.858-0.319 0.97-0.757l1-4c0.134-0.536-0.192-1.079-0.728-1.213-0.083-0.021-0.167-0.031-0.242-0.030h-3v-2h3c0.552 0 1-0.448 1-1v-4c0-0.552-0.448-1-1-1z"></path>
        </symbol>
        <symbol id="icon-twitter" viewBox="0 0 24 24">
            <path d="M20.833 5.262c-0.186 0.242-0.391 0.475-0.616 0.696-0.233 0.232-0.347 0.567-0.278 0.908 0.037 0.182 0.060 0.404 0.061 0.634 0 5.256-2.429 8.971-5.81 10.898-2.647 1.509-5.938 1.955-9.222 1.12 1.245-0.361 2.46-0.921 3.593-1.69 0.147-0.099 0.273-0.243 0.352-0.421 0.224-0.505-0.003-1.096-0.508-1.32-2.774-1.233-4.13-2.931-4.769-4.593-0.417-1.084-0.546-2.198-0.52-3.227 0.021-0.811 0.138-1.56 0.278-2.182 0.394 0.343 0.803 0.706 1.235 1.038 2.051 1.577 4.624 2.479 7.395 2.407 0.543-0.015 0.976-0.457 0.976-1v-1.011c-0.002-0.179 0.009-0.357 0.034-0.533 0.113-0.806 0.504-1.569 1.162-2.141 0.725-0.631 1.636-0.908 2.526-0.846s1.753 0.463 2.384 1.188c0.252 0.286 0.649 0.416 1.033 0.304 0.231-0.067 0.463-0.143 0.695-0.228zM22.424 2.183c-0.74 0.522-1.523 0.926-2.287 1.205-0.931-0.836-2.091-1.302-3.276-1.385-1.398-0.097-2.836 0.339-3.977 1.332-1.036 0.901-1.652 2.108-1.83 3.372-0.037 0.265-0.055 0.532-0.054 0.8-1.922-0.142-3.693-0.85-5.15-1.97-0.775-0.596-1.462-1.309-2.034-2.116-0.32-0.45-0.944-0.557-1.394-0.237-0.154 0.109-0.267 0.253-0.335 0.409 0 0-0.132 0.299-0.285 0.76-0.112 0.337-0.241 0.775-0.357 1.29-0.163 0.722-0.302 1.602-0.326 2.571-0.031 1.227 0.12 2.612 0.652 3.996 0.683 1.775 1.966 3.478 4.147 4.823-1.569 0.726-3.245 1.039-4.873 0.967-0.552-0.024-1.019 0.403-1.043 0.955-0.017 0.389 0.19 0.736 0.513 0.918 4.905 2.725 10.426 2.678 14.666 0.261 4.040-2.301 6.819-6.7 6.819-12.634-0.001-0.167-0.008-0.33-0.023-0.489 1.006-1.115 1.676-2.429 1.996-3.781 0.127-0.537-0.206-1.076-0.743-1.203-0.29-0.069-0.58-0.003-0.807 0.156z"></path>
        </symbol>
        <symbol id="icon-phone" viewBox="0 0 21 32">
            <path d="M16.935 2.286h-13.299c-1.377 0-2.494 1.152-2.494 2.571v22.286c0 1.42 1.117 2.571 2.494 2.571h13.299c1.377 0 2.494-1.152 2.494-2.571v-22.286c0-1.42-1.117-2.571-2.494-2.571zM12.779 26.238c0 0.52-0.374 0.905-0.831 0.905h-3.371c-0.41 0-0.784-0.386-0.784-0.857s0.374-0.857 0.831-0.857h3.325c0.457 0 0.831 0.386 0.831 0.809zM16.104 22.857h-11.636v-17.143h11.636v17.143z"></path>
        </symbol>
    </defs>
</svg>